<?xml version="1.0" encoding="utf-8"?>
<!-- Generator: Adobe Illustrator 27.7.0, SVG Export Plug-In . SVG Version: 6.00 Build 0)  -->
<svg version="1.1" xmlns="http://www.w3.org/2000/svg" xmlns:xlink="http://www.w3.org/1999/xlink" x="0px" y="0px"
	 viewBox="0 0 320 270" style="enable-background:new 0 0 320 270;" xml:space="preserve">
<style type="text/css">
	.st0{fill:#2D19BE;}
	.st1{fill:#FFA26B;}
	.st2{fill:#BB00D4;}
	.st3{fill:#1ED6A6;}
	.st4{fill:#FFBD97;}
	.st5{fill:#5840FF;}
	.st6{fill:#F050F8;}
	.st7{fill:#180048;}
</style>
<g id="Layer_2">
</g>
<g id="Layer_1">
	<g>
		<path class="st0" d="M122.7,166.9c-0.6,0-1-0.4-1-1c0-0.3,0.1-0.5,0.3-0.7c12.9-13.8,24.2-20.4,33.7-19.7c6,0.4,11.2,3.7,15.4,9.8
			c0.3,0.5,0.2,1.1-0.3,1.4c-0.5,0.3-1.1,0.2-1.4-0.2c-3.9-5.6-8.6-8.6-14-9c-8.9-0.6-19.7,5.8-32.1,19.1
			C123.2,166.8,122.9,166.9,122.7,166.9L122.7,166.9z"/>
		<path class="st0" d="M215.8,216.4c-0.1,0-0.2,0-0.2,0c-11.6-2.7-17.4-8.7-20.1-13.3c-2.3-3.8-3.4-8.1-3.2-12.5
			c-4.2-3.5-7.8-7.7-10.6-12.4c-0.3-0.5-0.1-1.1,0.4-1.4c0.5-0.3,1.1-0.1,1.4,0.3c2.5,4.2,5.6,7.9,9.2,11.1c0.1-0.3,0.1-0.6,0.2-1
			c1.5-5.7,6-7.8,9.3-7c3,0.7,5.4,3.9,4.2,9.3c-0.8,3.4-2.8,4.4-4.4,4.7c-2.2,0.4-4.8-0.5-7.6-2.4c0.1,3.6,1.1,7,3,10.1
			c2.5,4.2,7.9,9.8,18.8,12.4c0.5,0.1,0.9,0.7,0.8,1.2C216.7,216.1,216.2,216.4,215.8,216.4L215.8,216.4z M194.4,189.7
			c2.9,2.1,5.4,3,7.2,2.7c1.5-0.2,2.4-1.3,2.8-3.2c0.8-3.6-0.2-6.3-2.7-7c-2.4-0.6-5.7,1.1-6.9,5.6
			C194.6,188.5,194.4,189.1,194.4,189.7L194.4,189.7z"/>
		<path class="st0" d="M239,225.1c-0.4,0-0.8-0.2-0.9-0.6l-2.3-5.4c-0.2-0.5,0-1.1,0.5-1.3c0.5-0.2,1.1,0,1.3,0.5c0,0,0,0,0,0
			l2.3,5.4c0.2,0.5,0,1.1-0.5,1.3C239.3,225,239.2,225.1,239,225.1L239,225.1z"/>
		<path class="st0" d="M231.3,226.9c0,0-0.1,0-0.1,0c-0.5-0.1-0.9-0.6-0.9-1.1l0.7-5.8c0.1-0.5,0.6-0.9,1.1-0.8
			c0.5,0.1,0.9,0.6,0.8,1.1l-0.7,5.8C232.2,226.5,231.8,226.9,231.3,226.9z"/>
	</g>
	<path class="st1" d="M137.9,188.6"/>
	<path class="st1" d="M113.9,138.3"/>
	<path class="st2" d="M119,144.6"/>
	<path class="st2" d="M123.6,136"/>
	<path class="st3" d="M113.9,138.3"/>
	<path class="st1" d="M200.6,103.8h69.9c3.3,0,5.9,2.7,5.9,5.9v34.6c0,3.3-2.7,5.9-5.9,5.9h-69.9c-3.3,0-5.9-2.7-5.9-5.9v-34.6
		C194.7,106.4,197.3,103.8,200.6,103.8z"/>
	<path class="st4" d="M206.3,113h19.2c2.5,0,4.5,2,4.5,4.5v19.8c0,2.5-2,4.5-4.5,4.5h-19.2c-2.5,0-4.5-2-4.5-4.5v-19.8
		C201.7,115,203.8,113,206.3,113z"/>
	<path class="st5" d="M214.3,119.3h3.1v8h-3.1V119.3z"/>
	<path class="st5" d="M206.2,133.9v-3.1h6.4v3.1H206.2z"/>
	<path class="st5" d="M218.9,133.9v-3.1h6.4v3.1H218.9z"/>
	<path class="st5" d="M269.5,124.1v12.5c0,2.6-2.1,4.7-4.7,4.7h-18.8c-1.8,0-3.4-1-4.2-2.6c-0.3-0.7-0.5-1.4-0.5-2.2v-12.9
		c0-1.6,0.5-3.2,1.4-4.5c1.9-2.7,4.9-6.5,8.1-6.5c2.7,0,5.8-0.2,8.5-0.1c1,0,2,0.1,2.9,0.3c1.2,0.3,2.2,1,2.9,2
		c0.9,1.2,2,2.7,2.8,3.9C268.9,120.4,269.5,122.2,269.5,124.1z"/>
	<path class="st4" d="M231.2,107.3h3.1v8h-3.1V107.3z"/>
	<path class="st4" d="M239.5,107.3h3.1v8h-3.1V107.3z"/>
	<path class="st6" d="M231.2,107.3h3.1v1.6h-3.1V107.3z"/>
	<path class="st6" d="M239.5,113.7h3.1v1.6h-3.1V113.7z"/>
	<path class="st0" d="M269.5,124.1v12.5c0,2.6-2.1,4.7-4.7,4.7h-18.8c-1.8,0-3.4-1-4.2-2.6c1,1,2.4,1.7,5.1,1
		c2.9-0.7,8.1-2.5,12.3-2.9s6.4,2.2,7.9,0.3c1.6-1.8,1-11.3,0.2-16.3c-0.8-5-7.9-8.4-7.9-8.4l2.9,0.3c1.2,0.3,2.2,1,2.9,2
		c0.9,1.2,2,2.7,2.8,3.9C268.9,120.4,269.5,122.2,269.5,124.1L269.5,124.1z"/>
	<path class="st6" d="M222.6,211.2l12.3,2l0,0l-7.4,2.1l1.2,4.9l-13-1.3l0,0l8.1-2.8L222.6,211.2z"/>
	<path class="st0" d="M182.2,166c-0.6,0-1-0.4-1-1c0-0.1,0-0.3,0.1-0.4l1.8-4.4c0.2-0.5,0.8-0.8,1.3-0.5s0.8,0.8,0.5,1.3l0,0
		l-1.8,4.4C182.9,165.8,182.6,166,182.2,166z"/>
	<path class="st0" d="M184.4,168.9c-0.6,0-1-0.4-1-1c0-0.5,0.3-0.9,0.7-1l4.6-1.2c0.5-0.1,1.1,0.2,1.2,0.7c0.1,0.5-0.2,1.1-0.7,1.2
		l0,0l-4.6,1.2C184.6,168.9,184.5,168.9,184.4,168.9z"/>
	<path class="st0" d="M245.6,217.9c-0.1,0-0.2,0-0.2,0l-5.7-1.4c-0.5-0.1-0.9-0.7-0.7-1.2c0.1-0.5,0.7-0.9,1.2-0.7l5.7,1.5
		c0.5,0.1,0.9,0.7,0.7,1.2C246.4,217.6,246,217.9,245.6,217.9L245.6,217.9z"/>
	<path class="st0" d="M256.7,148.4c0,14.3-0.4,34.2-4.2,45.4c-2.5,7.4-7.2,13.8-13.5,18.3c-0.2,0.1-0.4,0.2-0.6,0.2
		c-0.6,0-1-0.4-1-1c0-0.3,0.2-0.6,0.4-0.8c6-4.3,10.5-10.3,12.8-17.3c4.2-12.4,4.1-36.1,4.1-50.2v-2.9c0-0.6,0.4-1,1-1
		c0.6,0,1,0.4,1,1v2.9C256.7,144.7,256.7,146.5,256.7,148.4z"/>
	<path class="st5" d="M256.7,148.4c-0.3-0.4-0.5-0.9-0.6-1.3c-0.4-1.4,0-2.2-0.6-3.7c-0.2-0.4-0.5-0.8-0.8-1v-2.3c0-0.6,0.4-1,1-1
		c0.6,0,1,0.4,1,1v2.9C256.7,144.7,256.7,146.5,256.7,148.4L256.7,148.4z"/>
	<path class="st6" d="M171.7,170.8l-2.5-12.2l0,0l4.6,6.2l4.2-2.9l3.5,12.6l0,0l-5.5-6.6L171.7,170.8z"/>
	<path class="st0" d="M25.1,158.3c0.7-1.4,1.8-3.7,3.7-3.7l80,1.4c2.9,0,5.5,2.1,5.9,4.6l6.8,25.9c0.2,1.3-1.4,3.5-2.3,4.4
		c-0.8,0.8-2,1.4-3.5,1.4l-89.7,0.3c-2.9,0-5.5-2.1-5.9-4.6"/>
	<path class="st5" d="M31.6,185.5l-5.5-27c-0.4-2.6,1.6-4.6,4.5-4.6l79.5-0.1c2.9,0,5.5,2.1,5.9,4.6l5.5,27c0.4,2.6-1.6,4.6-4.5,4.6
		l-79.5,0.1C34.7,190.2,32,188.1,31.6,185.5L31.6,185.5z"/>
	<path class="st7" d="M34.9,185.3l-5.4-25.9c-0.2-1.4,0.9-2.6,2.5-2.6l77.5-0.4c1.6,0,3.1,1.2,3.3,2.6l5.4,25.9
		c0.2,1.4-0.9,2.6-2.5,2.6l-77.5,0.4C36.6,187.9,35.2,186.7,34.9,185.3L34.9,185.3z"/>
	<g>
		<path class="st7" d="M68.2,167c-0.1-0.9,0.3-1.6,0.9-1.8c0.2-0.1,0.5-0.1,0.7,0.1c0.2,0.2,0,0.4-0.2,0.5c-0.5,0.5-0.4,1.5,0.3,2.2
			c0.2,0.2,0.5,0.4,0.3,0.6c-0.2,0.2-0.6,0.1-0.9,0C68.6,168.3,68.3,167.6,68.2,167L68.2,167z"/>
		<path class="st7" d="M85,176.1c0,0.2-0.2,0.8-0.6,1c-0.1,0.1-0.3,0-0.3-0.2c0.2-0.5,0.1-0.8,0.3-1.1c0.1-0.1,0.2-0.1,0.4-0.1
			C84.9,175.8,85,175.9,85,176.1L85,176.1z"/>
		<path class="st7" d="M81.5,158.4c-0.3,0-0.4-0.3-0.5-0.6c0-0.1-0.1-0.3-0.2-0.4c-0.1-0.1-0.1-0.2,0-0.3c0.1-0.1,0.2,0,0.3,0.1
			c0.2,0.2,0.3,0.4,0.5,0.5c0.2,0.2,0.2,0.3,0.2,0.5C81.8,158.3,81.7,158.4,81.5,158.4L81.5,158.4z"/>
	</g>
	
		<image style="overflow:visible;" width="14565" height="4503" xlink:href="xtreme.png"  transform="matrix(5.609218e-03 -3.075096e-05 9.890564e-04 5.958013e-03 30.8452 158.9529)">
	</image>
</g>
</svg>
